<svg id="レイヤー_1" data-name="レイヤー 1" xmlns="http://www.w3.org/2000/svg" xmlns:xlink="http://www.w3.org/1999/xlink" viewBox="0 0 577.96 129.06"><defs><style>.cls-1{fill:url(#名称未設定グラデーション_48);}.cls-2{fill:#231815;}.cls-3{fill:url(#名称未設定グラデーション_44);}.cls-4{fill:#dd589b;}</style><radialGradient id="名称未設定グラデーション_48" cx="-207.43" cy="-302.71" r="90.34" gradientTransform="translate(100.03 135.89) scale(0.33 0.31)" gradientUnits="userSpaceOnUse"><stop offset="0" stop-color="#f5c74a"/><stop offset="1" stop-color="#ea5a83"/></radialGradient><radialGradient id="名称未設定グラデーション_44" cx="246.94" cy="-576.62" r="76.1" gradientTransform="translate(328.68 182.94) scale(0.21 0.19)" gradientUnits="userSpaceOnUse"><stop offset="0" stop-color="#f1f3b9"/><stop offset="0.23" stop-color="#efc3a8"/><stop offset="0.47" stop-color="#ed9698"/><stop offset="0.69" stop-color="#eb758d"/><stop offset="0.88" stop-color="#ea6186"/><stop offset="1" stop-color="#ea5a83"/></radialGradient></defs><title>アートボード 1</title><ellipse class="cls-1" cx="32.33" cy="40.9" rx="1.07" ry="0.5"/><path class="cls-2" d="M90.87,71.19c0,18.9-14.7,27.08-27.09,27.08-15,0-25.93-11-25.93-25.93,0-16.8,12.6-27,26.67-27C80.69,45.36,90.87,56.8,90.87,71.19ZM43,72c0,14.07,10.19,22,21.11,22,11.13,0,21.63-8.08,21.63-22.57,0-9.55-6.41-21.94-21.21-21.94C50.24,49.56,43,60.27,43,72Z"/><path class="cls-2" d="M109.77,70.87H110c1.37-1.57,3.78-4.09,5.57-5.77l19.63-18.48h6.51L119.22,67.41,145,97h-6.41l-23-26.66-5.78,5.56V97h-5.14V21.84h5.14Z"/><path class="cls-2" d="M183.27,97l-.84-7.76h-.21a22.33,22.33,0,0,1-18.27,9c-11.44,0-16.06-7.76-16.06-13.85,0-11.45,10.6-18.9,34.12-18.59V64.68c0-3.78-.84-15.12-14.28-15a25.39,25.39,0,0,0-14.49,4.2l-1.68-3.67a30.38,30.38,0,0,1,16.59-4.83c17.11,0,19,13.23,19,21.21V84.84A79,79,0,0,0,188,97ZM182,70.14c-13.33-.42-28.66,1.68-28.66,13.33,0,7.14,5.14,10.6,11,10.6,9.77,0,15-5.77,17-10.28a8.24,8.24,0,0,0,.63-2.94Z"/><path class="cls-2" d="M202.69,90.19A24.52,24.52,0,0,0,215.29,94c8.82,0,12.71-4.62,12.71-9.76,0-5.88-4-8.72-11.87-11.24C207,70,202.48,65.31,202.48,59.32c0-7.14,5.67-14,16.59-14a22,22,0,0,1,12.18,3.36l-2,4.2a19.21,19.21,0,0,0-11.13-3.26c-6.93,0-10.61,4.2-10.61,9,0,5.67,4.31,7.88,11.76,10.4,9.24,3.15,13.76,7.14,13.76,14.7,0,8.19-6.72,14.48-18.17,14.48a28.25,28.25,0,0,1-14.06-3.67Z"/><path class="cls-2" d="M247.63,21.84h5.15v35H253a20,20,0,0,1,7.77-8.19,22,22,0,0,1,11.34-3.25c4.83,0,19.63,2.1,19.63,22.89V97h-5.14V68.46c0-9.77-4.2-18.59-15.86-18.59-8,0-14.7,5.67-17.11,11.87a13.3,13.3,0,0,0-.84,5.35V97h-5.15Z"/><path class="cls-2" d="M309.69,97V46.62h5.14V97Z"/><path class="cls-2" d="M403.24,21.84v63c0,4.09.1,8.08.42,12.17h-4.73l-.31-10.49h-.21c-2.94,6.3-9.87,11.75-20.37,11.75-14.17,0-24.25-11.33-24.25-25.3C353.68,56.59,365,45.36,379.2,45.36c10.5,0,16.48,5.56,18.68,9.66h.21V21.84Zm-5.15,45a19.84,19.84,0,0,0-.63-4.93c-2.2-6.83-8.71-12.39-18.16-12.39-12,0-20.37,9.13-20.37,22.78,0,11.34,6.62,21.73,20.27,21.73a19,19,0,0,0,18.26-13.85,14.45,14.45,0,0,0,.63-4.41Z"/><path class="cls-2" d="M452.27,97l-.84-7.76h-.21a22.33,22.33,0,0,1-18.27,9c-11.44,0-16.06-7.76-16.06-13.85,0-11.45,10.6-18.9,34.12-18.59V64.68c0-3.78-.84-15.12-14.28-15a25.41,25.41,0,0,0-14.49,4.2l-1.67-3.67a30.32,30.32,0,0,1,16.58-4.83c17.12,0,19,13.23,19,21.21V84.84A79,79,0,0,0,457,97ZM451,70.14c-13.33-.42-28.66,1.68-28.66,13.33,0,7.14,5.14,10.6,11,10.6,9.77,0,15-5.77,17-10.28a8.24,8.24,0,0,0,.63-2.94Z"/><path class="cls-2" d="M471.07,46.62l15,33.7a97.53,97.53,0,0,1,4.1,10.6h.21c1.15-3.14,2.52-6.92,4.2-11l14.07-33.28h5.56L496.37,87.36c-6.93,16-11.44,23.83-18.16,28.66a26.59,26.59,0,0,1-9.24,4.51l-1.37-4.3a25.09,25.09,0,0,0,9.24-4.94,36.77,36.77,0,0,0,9.66-13.54,5.84,5.84,0,0,0,.63-2,6.69,6.69,0,0,0-.73-2.32L465.5,46.62Z"/><path class="cls-2" d="M522.1,90.19A24.49,24.49,0,0,0,534.7,94c8.82,0,12.7-4.62,12.7-9.76,0-5.88-4-8.72-11.86-11.24-9.14-2.94-13.65-7.66-13.65-13.65,0-7.14,5.67-14,16.59-14a22,22,0,0,1,12.18,3.36l-2,4.2a19.18,19.18,0,0,0-11.13-3.26c-6.93,0-10.6,4.2-10.6,9,0,5.67,4.3,7.88,11.76,10.4,9.24,3.15,13.75,7.14,13.75,14.7,0,8.19-6.72,14.48-18.16,14.48a28.29,28.29,0,0,1-14.07-3.67Z"/><path class="cls-2" d="M563.57,93.44c0-2.83,1.89-4.93,4.52-4.93s4.41,2.1,4.41,4.93A4.62,4.62,0,0,1,568,98.27,4.54,4.54,0,0,1,563.57,93.44Z"/><ellipse class="cls-3" cx="379.53" cy="72.01" rx="0.53" ry="0.5"/><rect class="cls-4" x="307.26" y="26.15" width="10" height="10"/></svg>